<svg width="1280" height="720" xmlns="http://www.w3.org/2000/svg" xmlns:xlink="http://www.w3.org/1999/xlink" overflow="hidden"><defs><clipPath id="clip0"><path d="M0 0 1280 0 1280 720 0 720Z" fill-rule="evenodd" clip-rule="evenodd"/></clipPath><linearGradient x1="265" y1="245.5" x2="416" y2="245.5" gradientUnits="userSpaceOnUse" spreadMethod="reflect" id="fill1"><stop offset="0" stop-color="#4472C4"/><stop offset="0.27" stop-color="#4472C4"/><stop offset="0.73" stop-color="#548235"/><stop offset="1" stop-color="#548235"/></linearGradient><linearGradient x1="151" y1="56.5" x2="0" y2="56.5" gradientUnits="userSpaceOnUse" spreadMethod="reflect" id="fill2"><stop offset="0" stop-color="#4472C4"/><stop offset="0.27" stop-color="#4472C4"/><stop offset="0.73" stop-color="#548235"/><stop offset="1" stop-color="#548235"/></linearGradient><linearGradient x1="265" y1="288" x2="360" y2="288" gradientUnits="userSpaceOnUse" spreadMethod="reflect" id="fill3"><stop offset="0" stop-color="#8FAADC"/><stop offset="0.012987" stop-color="#8FAADB"/><stop offset="0.025974" stop-color="#90ABDB"/><stop offset="0.038961" stop-color="#90ACDB"/><stop offset="0.0519481" stop-color="#91ADDB"/><stop offset="0.0649351" stop-color="#92AEDB"/><stop offset="0.0779221" stop-color="#92AFDB"/><stop offset="0.0909091" stop-color="#93B0DB"/><stop offset="0.103896" stop-color="#93B1DA"/><stop offset="0.116883" stop-color="#94B2DA"/><stop offset="0.12987" stop-color="#94B2DA"/><stop offset="0.142857" stop-color="#95B3D9"/><stop offset="0.155844" stop-color="#96B4D9"/><stop offset="0.168831" stop-color="#96B5D9"/><stop offset="0.181818" stop-color="#97B6D8"/><stop offset="0.194805" stop-color="#97B7D8"/><stop offset="0.207792" stop-color="#98B7D7"/><stop offset="0.220779" stop-color="#98B8D7"/><stop offset="0.233766" stop-color="#99B9D6"/><stop offset="0.246753" stop-color="#99BAD6"/><stop offset="0.25974" stop-color="#9ABAD5"/><stop offset="0.272727" stop-color="#9ABBD5"/><stop offset="0.285714" stop-color="#9BBCD4"/><stop offset="0.298701" stop-color="#9BBCD3"/><stop offset="0.311688" stop-color="#9CBDD3"/><stop offset="0.324675" stop-color="#9CBED2"/><stop offset="0.337662" stop-color="#9CBED1"/><stop offset="0.350649" stop-color="#9DBFD1"/><stop offset="0.363636" stop-color="#9DC0D0"/><stop offset="0.376623" stop-color="#9EC0CF"/><stop offset="0.38961" stop-color="#9EC1CE"/><stop offset="0.402597" stop-color="#9FC2CD"/><stop offset="0.415584" stop-color="#9FC2CC"/><stop offset="0.428571" stop-color="#9FC3CC"/><stop offset="0.441558" stop-color="#A0C3CB"/><stop offset="0.454545" stop-color="#A0C4CA"/><stop offset="0.467532" stop-color="#A1C5C9"/><stop offset="0.480519" stop-color="#A1C5C8"/><stop offset="0.493506" stop-color="#A1C6C7"/><stop offset="0.506494" stop-color="#A2C6C6"/><stop offset="0.519481" stop-color="#A2C7C5"/><stop offset="0.532468" stop-color="#A2C7C4"/><stop offset="0.545455" stop-color="#A3C8C2"/><stop offset="0.558442" stop-color="#A3C8C1"/><stop offset="0.571429" stop-color="#A3C9C0"/><stop offset="0.584416" stop-color="#A3C9BF"/><stop offset="0.597403" stop-color="#A4C9BE"/><stop offset="0.61039" stop-color="#A4CABD"/><stop offset="0.623377" stop-color="#A4CABB"/><stop offset="0.636364" stop-color="#A5CBBA"/><stop offset="0.649351" stop-color="#A5CBB9"/><stop offset="0.662338" stop-color="#A5CBB7"/><stop offset="0.675325" stop-color="#A5CCB6"/><stop offset="0.688312" stop-color="#A6CCB5"/><stop offset="0.701299" stop-color="#A6CCB3"/><stop offset="0.714286" stop-color="#A6CDB2"/><stop offset="0.727273" stop-color="#A6CDB1"/><stop offset="0.74026" stop-color="#A6CDAF"/><stop offset="0.753247" stop-color="#A7CEAE"/><stop offset="0.766234" stop-color="#A7CEAC"/><stop offset="0.779221" stop-color="#A7CEAB"/><stop offset="0.792208" stop-color="#A7CEA9"/><stop offset="0.805195" stop-color="#A7CFA8"/><stop offset="0.818182" stop-color="#A7CFA6"/><stop offset="0.831169" stop-color="#A8CFA4"/><stop offset="0.844156" stop-color="#A8CFA3"/><stop offset="0.857143" stop-color="#A8CFA1"/><stop offset="0.87013" stop-color="#A8D09F"/><stop offset="0.883117" stop-color="#A8D09E"/><stop offset="0.896104" stop-color="#A8D09C"/><stop offset="0.909091" stop-color="#A8D09A"/><stop offset="0.922078" stop-color="#A8D099"/><stop offset="0.935065" stop-color="#A8D097"/><stop offset="0.948052" stop-color="#A8D095"/><stop offset="0.961039" stop-color="#A8D093"/><stop offset="0.974026" stop-color="#A8D091"/><stop offset="0.987013" stop-color="#A8D08F"/><stop offset="1" stop-color="#A9D18E"/></linearGradient><linearGradient x1="334" y1="409" x2="334" y2="520" gradientUnits="userSpaceOnUse" spreadMethod="reflect" id="fill4"><stop offset="0" stop-color="#AFABAB"/><stop offset="0.15" stop-color="#AFABAB"/><stop offset="0.71" stop-color="#8FAADC"/><stop offset="1" stop-color="#8FAADC"/></linearGradient><linearGradient x1="698" y1="506.5" x2="794" y2="506.5" gradientUnits="userSpaceOnUse" spreadMethod="reflect" id="fill5"><stop offset="0" stop-color="#8FAADC"/><stop offset="0.012987" stop-color="#8FAADB"/><stop offset="0.025974" stop-color="#90ABDB"/><stop offset="0.038961" stop-color="#90ACDB"/><stop offset="0.0519481" stop-color="#91ADDB"/><stop offset="0.0649351" stop-color="#92AEDB"/><stop offset="0.0779221" stop-color="#92AFDB"/><stop offset="0.0909091" stop-color="#93B0DB"/><stop offset="0.103896" stop-color="#93B1DA"/><stop offset="0.116883" stop-color="#94B2DA"/><stop offset="0.12987" stop-color="#94B2DA"/><stop offset="0.142857" stop-color="#95B3D9"/><stop offset="0.155844" stop-color="#96B4D9"/><stop offset="0.168831" stop-color="#96B5D9"/><stop offset="0.181818" stop-color="#97B6D8"/><stop offset="0.194805" stop-color="#97B7D8"/><stop offset="0.207792" stop-color="#98B7D7"/><stop offset="0.220779" stop-color="#98B8D7"/><stop offset="0.233766" stop-color="#99B9D6"/><stop offset="0.246753" stop-color="#99BAD6"/><stop offset="0.25974" stop-color="#9ABAD5"/><stop offset="0.272727" stop-color="#9ABBD5"/><stop offset="0.285714" stop-color="#9BBCD4"/><stop offset="0.298701" stop-color="#9BBCD3"/><stop offset="0.311688" stop-color="#9CBDD3"/><stop offset="0.324675" stop-color="#9CBED2"/><stop offset="0.337662" stop-color="#9CBED1"/><stop offset="0.350649" stop-color="#9DBFD1"/><stop offset="0.363636" stop-color="#9DC0D0"/><stop offset="0.376623" stop-color="#9EC0CF"/><stop offset="0.38961" stop-color="#9EC1CE"/><stop offset="0.402597" stop-color="#9FC2CD"/><stop offset="0.415584" stop-color="#9FC2CC"/><stop offset="0.428571" stop-color="#9FC3CC"/><stop offset="0.441558" stop-color="#A0C3CB"/><stop offset="0.454545" stop-color="#A0C4CA"/><stop offset="0.467532" stop-color="#A1C5C9"/><stop offset="0.480519" stop-color="#A1C5C8"/><stop offset="0.493506" stop-color="#A1C6C7"/><stop offset="0.506494" stop-color="#A2C6C6"/><stop offset="0.519481" stop-color="#A2C7C5"/><stop offset="0.532468" stop-color="#A2C7C4"/><stop offset="0.545455" stop-color="#A3C8C2"/><stop offset="0.558442" stop-color="#A3C8C1"/><stop offset="0.571429" stop-color="#A3C9C0"/><stop offset="0.584416" stop-color="#A3C9BF"/><stop offset="0.597403" stop-color="#A4C9BE"/><stop offset="0.61039" stop-color="#A4CABD"/><stop offset="0.623377" stop-color="#A4CABB"/><stop offset="0.636364" stop-color="#A5CBBA"/><stop offset="0.649351" stop-color="#A5CBB9"/><stop offset="0.662338" stop-color="#A5CBB7"/><stop offset="0.675325" stop-color="#A5CCB6"/><stop offset="0.688312" stop-color="#A6CCB5"/><stop offset="0.701299" stop-color="#A6CCB3"/><stop offset="0.714286" stop-color="#A6CDB2"/><stop offset="0.727273" stop-color="#A6CDB1"/><stop offset="0.74026" stop-color="#A6CDAF"/><stop offset="0.753247" stop-color="#A7CEAE"/><stop offset="0.766234" stop-color="#A7CEAC"/><stop offset="0.779221" stop-color="#A7CEAB"/><stop offset="0.792208" stop-color="#A7CEA9"/><stop offset="0.805195" stop-color="#A7CFA8"/><stop offset="0.818182" stop-color="#A7CFA6"/><stop offset="0.831169" stop-color="#A8CFA4"/><stop offset="0.844156" stop-color="#A8CFA3"/><stop offset="0.857143" stop-color="#A8CFA1"/><stop offset="0.87013" stop-color="#A8D09F"/><stop offset="0.883117" stop-color="#A8D09E"/><stop offset="0.896104" stop-color="#A8D09C"/><stop offset="0.909091" stop-color="#A8D09A"/><stop offset="0.922078" stop-color="#A8D099"/><stop offset="0.935065" stop-color="#A8D097"/><stop offset="0.948052" stop-color="#A8D095"/><stop offset="0.961039" stop-color="#A8D093"/><stop offset="0.974026" stop-color="#A8D091"/><stop offset="0.987013" stop-color="#A8D08F"/><stop offset="1" stop-color="#A9D18E"/></linearGradient></defs><g clip-path="url(#clip0)"><rect x="0" y="0" width="1280" height="720" fill="#FFFFFF"/><path d="M1020 71 1172 71 1172 80.9441 1172 127.703 1172 217.484 1172 274.187 1172 544 1115 544 1115 274.187 1020 274.187 1020 217.484 1115 217.484 1115 127.703 1020 127.703Z" fill="#548235" fill-rule="evenodd"/><path d="M674.017 99 730 99 730 274 696.983 274 674.017 274 641 274 641 217.243 674.017 217.243Z" fill="#548235" fill-rule="evenodd"/><rect x="38" y="38" width="227" height="113" fill="#548235"/><text fill="#FFFFFF" font-family="Calibri,Calibri_MSFontService,sans-serif" font-weight="400" font-size="24" transform="translate(90.4344 73)">Hydrophone <tspan x="-15.12" y="29">calibration data</tspan><tspan font-style="italic" x="-28.68" y="58">Frequency domain</tspan></text><rect x="38" y="189" width="227" height="113" fill="#4472C4"/><text fill="#FFFFFF" font-family="Calibri,Calibri_MSFontService,sans-serif" font-weight="400" font-size="24" transform="translate(101.838 224)">Measured <tspan x="-48.3267" y="29">hydrophone voltage</tspan><tspan font-style="italic" x="-14.16" y="58">Time domain</tspan></text><path d="M265 217.25 359.5 217.25 359.5 189 416 245.5 359.5 302 359.5 273.75 265 273.75Z" fill="url(#fill1)" fill-rule="evenodd"/><text fill="#FFFFFF" font-family="Calibri,Calibri_MSFontService,sans-serif" font-weight="400" font-size="21" transform="translate(285.521 253)">Fourier T.</text><path d="M265 66.2501 359.5 66.2501 359.5 38 416 94.5 359.5 151 359.5 122.75 265 122.75Z" fill="#548235" fill-rule="evenodd"/><text fill="#FFFFFF" font-family="Calibri,Calibri_MSFontService,sans-serif" font-weight="400" font-size="19" transform="translate(282.001 89)">Inter/Extra<tspan x="82.3" y="0">-</tspan><tspan x="12.4" y="23">polation</tspan></text><rect x="416" y="189" width="227" height="113" fill="#548235"/><text fill="#FFFFFF" font-family="Calibri,Calibri_MSFontService,sans-serif" font-weight="400" font-size="24" transform="translate(479.79 224)">Measured <tspan x="-48.3267" y="29">hydrophone voltage</tspan><tspan font-style="italic" x="-40.0867" y="58">Frequency domain</tspan></text><rect x="416" y="38" width="227" height="113" fill="#548235"/><text fill="#FFFFFF" font-family="Calibri,Calibri_MSFontService,sans-serif" font-weight="400" font-size="24" transform="translate(485.981 59)">Adjusted <tspan x="-16.2067" y="29">hydrophone </tspan><tspan x="-32.7133" y="58">calibration data</tspan><tspan font-style="italic" x="-46.2733" y="87">Frequency domain</tspan></text><rect x="794" y="38" width="226" height="113" fill="#548235"/><text fill="#FFFFFF" font-family="Calibri,Calibri_MSFontService,sans-serif" font-weight="400" font-size="24" transform="translate(813.53 88)">Deconvolved signal<tspan font-style="italic" x="4.12671" y="29">Frequency domain</tspan></text><rect x="794" y="189" width="226" height="113" fill="#548235"/><text fill="#FFFFFF" font-family="Calibri,Calibri_MSFontService,sans-serif" font-weight="400" font-size="24" transform="translate(854.633 224)">Low<tspan x="39.9067" y="0">-</tspan><tspan x="47.24" y="0">pass </tspan><tspan x="95.5733" y="0">/ </tspan><tspan x="-40.5333" y="29">regularization </tspan><tspan x="99.0333" y="29">filter</tspan><tspan font-style="italic" x="-36.9733" y="58">Frequency domain</tspan></text><path d="M0 28.25 95.5 28.25 95.5 0 152 56.5 95.5 113 95.5 84.75 0 84.75Z" fill="#548235" fill-rule="evenodd" transform="matrix(-1 -8.74228e-08 -8.74228e-08 1 1172 492)"/><text fill="#FFFFFF" font-family="Calibri,Calibri_MSFontService,sans-serif" font-weight="400" font-size="21" transform="translate(1071.76 543)">Regulari<tspan x="70.46" y="0">-</tspan><tspan x="12.1733" y="26">zation</tspan></text><rect x="794" y="492" width="226" height="113" fill="#548235"/><text fill="#FFFFFF" font-family="Calibri,Calibri_MSFontService,sans-serif" font-weight="400" font-size="24" transform="translate(819.9 542)">Regularized signal<tspan font-style="italic" x="-2.23999" y="29">Frequency domain</tspan></text><path d="M0 28.2501 94.5 28.2501 94.5 0 151 56.5 94.5 113 94.5 84.7501 0 84.7501Z" fill="url(#fill2)" fill-rule="evenodd" transform="matrix(-1 -8.74228e-08 -8.74228e-08 1 794 492)"/><text fill="#FFFFFF" font-family="Calibri,Calibri_MSFontService,sans-serif" font-weight="400" font-size="21" transform="translate(701.08 543)">Inverse <tspan x="-9.25995" y="26">Fourier T.</tspan></text><path d="M643 66.2501 737.5 66.2501 737.5 38 794 94.5 737.5 151 737.5 122.75 643 122.75Z" fill="#548235" fill-rule="evenodd"/><text fill="#FFFFFF" font-family="Calibri,Calibri_MSFontService,sans-serif" font-weight="400" font-size="19" transform="translate(677.014 89)">Decon<tspan x="48.18" y="0">-</tspan><tspan x="-4.40668" y="23">volution</tspan></text><rect x="416" y="492" width="227" height="113" fill="#4472C4"/><text fill="#FFFFFF" font-family="Calibri,Calibri_MSFontService,sans-serif" font-weight="400" font-size="24" transform="translate(449.214 542)">Ultrasonic signal<tspan font-style="italic" x="16.42" y="29">Time domain</tspan></text><rect x="416" y="341" width="227" height="113" fill="#7F7F7F"/><text fill="#FFFFFF" font-family="Calibri,Calibri_MSFontService,sans-serif" font-weight="400" font-size="24" transform="translate(480.594 362)">Estimated <tspan x="-44.1867" y="29">uncertainty caused </tspan><tspan x="-32.9333" y="58">by </tspan><tspan x="-4.05334" y="58">regularization</tspan><tspan font-style="italic" x="-14.96" y="87">Time domain</tspan></text><rect x="38" y="492" width="227" height="113" fill="#4472C4"/><text fill="#FFFFFF" font-family="Calibri,Calibri_MSFontService,sans-serif" font-weight="400" font-size="24" transform="translate(71.261 527)">Ultrasonic signal <tspan x="-0.406662" y="29">with uncertainty</tspan><tspan font-style="italic" x="16.42" y="58">Time domain</tspan></text><path d="M0 28.2501 94.5 28.2501 94.5 0 151 56.5 94.5 113 94.5 84.7501 0 84.7501Z" fill="#4472C4" fill-rule="evenodd" transform="matrix(-1 -8.74228e-08 -8.74228e-08 1 416 492)"/><text fill="#FFFFFF" font-family="Calibri,Calibri_MSFontService,sans-serif" font-weight="400" font-size="21" transform="translate(303.477 543)">Uncertainty<tspan x="14.94" y="27">addition</tspan></text><rect x="794" y="341" width="226" height="113" fill="#7F7F7F"/><text fill="#FFFFFF" font-family="Calibri,Calibri_MSFontService,sans-serif" font-weight="400" font-size="24" transform="translate(833.553 391)">Wavelet model<tspan font-style="italic" x="-15.8933" y="29">Frequency domain</tspan></text><path d="M889 322 898 322 898 302 916 302 916 322 925 322 907 340Z" fill="#548235" fill-rule="evenodd"/><path d="M925 472 916 472 916 492 898 492 898 472 889 472 907 454Z" fill="#548235" fill-rule="evenodd"/><path d="M0 14 123 14 123 0 151 28.0001 123 56 123 42 0 42Z" fill="#7F7F7F" fill-rule="evenodd" transform="matrix(-1 -8.74228e-08 -8.74228e-08 1 794 369)"/><rect x="265" y="122" width="95" height="29" fill="#A9D18E"/><text fill="#FFFFFF" font-family="Calibri,Calibri_MSFontService,sans-serif" font-weight="400" font-size="16" transform="translate(274.338 142)">Uncertainty</text><rect x="265" y="274" width="95" height="28" fill="url(#fill3)"/><text fill="#FFFFFF" font-family="Calibri,Calibri_MSFontService,sans-serif" font-weight="400" font-size="16" transform="translate(274.338 293)">Uncertainty</text><rect x="643" y="122" width="95" height="28" fill="#A9D18E"/><text fill="#FFFFFF" font-family="Calibri,Calibri_MSFontService,sans-serif" font-weight="400" font-size="16" transform="translate(652.29 141)">Uncertainty</text><path d="M730.111 122 756 122 756 273.691 756 279.538 756 302 643 302 643 273.691 730.111 273.691Z" fill="#A9D18E" fill-rule="evenodd"/><path d="M360 273.25 388 273.25 388 259 416 287.5 388 316 388 301.75 360 301.75Z" fill="#A9D18E" fill-rule="evenodd"/><path d="M360 122.25 388 122.25 388 108 416 136.5 388 165 388 150.75 360 150.75Z" fill="#A9D18E" fill-rule="evenodd"/><path d="M739 121.25 766.5 121.25 766.5 107 794 135.5 766.5 164 766.5 149.75 739 149.75Z" fill="#A9D18E" fill-rule="evenodd"/><rect x="320" y="409" width="28" height="111" fill="url(#fill4)"/><rect x="320" y="383" width="96" height="28" fill="#AFABAB"/><text fill="#FFFFFF" font-family="Calibri,Calibri_MSFontService,sans-serif" font-weight="400" font-size="16" transform="translate(329.817 402)">Uncertainty</text><path d="M320 520.75 292.5 520.75 292.5 535 265 506.5 292.5 478 292.5 492.25 320 492.25Z" fill="#8FAADC" fill-rule="evenodd"/><path d="M699 520.75 671.5 520.75 671.5 535 644 506.5 671.5 478 671.5 492.25 699 492.25Z" fill="#8FAADC" fill-rule="evenodd"/><rect x="698" y="492" width="96" height="29" fill="url(#fill5)"/><text fill="#FFFFFF" font-family="Calibri,Calibri_MSFontService,sans-serif" font-weight="400" font-size="16" transform="translate(707.77 512)">Uncertainty</text><rect x="321" y="492" width="96" height="28" fill="#8FAADC"/><text fill="#FFFFFF" font-family="Calibri,Calibri_MSFontService,sans-serif" font-weight="400" font-size="16" transform="translate(331.03 511)">Uncertainty</text><path d="M1076 520.75 1048.5 520.75 1048.5 535 1021 506.5 1048.5 478 1048.5 492.25 1076 492.25Z" fill="#A9D18E" fill-rule="evenodd"/><rect x="1020" y="122" width="96" height="29" fill="#A9D18E"/><text fill="#FFFFFF" font-family="Calibri,Calibri_MSFontService,sans-serif" font-weight="400" font-size="16" transform="translate(1030.24 142)">Uncertainty</text><path d="M1116.05 122 1171.87 122 1204 122 1204 150.403 1204 492.597 1204 520.439 1204 521 1076 521 1076 492.597 1171.87 492.597 1171.87 150.403 1116.05 150.403Z" fill="#A9D18E" fill-rule="evenodd"/></g></svg>